:SAMPLES-PER-SECOND 30
:FULLY-SPECIFIED
:DEGREES
83
root  -4.05637 40.8791 -0.349955 -11.7713 -83.883 13.9586
RightUpLeg  4.56271 -2.31904 -2.57348
RightLeg  -2.29658 -25.3781 0.736898
RightFoot  -2.4277 -0.320085 3.8828
RightToes  -3.10096e-008 1.75238e-005 3.56266e-009
Spine  -7.51193 -2.15195 -5.92299
Spine1  10.7513 -2.7702 4.29784
HEad  -24.2685 -1.01885 3.53647
LeftShoulder1  3.1704 -5.82241 -27.9329
LeftArm  -10.2711 -10.9587 -28.0561
LeftForeArm  110.649 -68.3005 -148.453
LeftHand  1.4216 -8.74028 -11.2219
RightShoulder  2.95734 5.44869 27.0448
RightArm  -8.23085 -32.9144 44.5264
RightForeArm  36.6547 46.6181 9.22439
RightHand  -0.198231 7.51337 -2.14476
LeftUpLeg  1.94157 0.00592169 1.17243
LeftLeg  -3.09183 6.97067 -0.677547
LeftFoot  -0.162545 0.251283 -2.48062
LeftToes  4.7633e-008 1.48299e-008 1.30754e-009
84
root  -4.06014 40.8789 -0.348822 -11.9669 -83.7568 14.0343
RightUpLeg  4.72461 -2.38087 -2.62525
RightLeg  -2.30128 -25.3939 0.747856
RightFoot  -2.45086 -0.319722 3.87542
RightToes  -3.10096e-008 1.75238e-005 3.56266e-009
Spine  -7.70924 -2.16531 -6.06932
Spine1  11.129 -2.80054 4.39487
HEad  -24.3199 -0.839788 3.12162
LeftShoulder1  3.18367 -5.86777 -27.9093
LeftArm  -9.66745 -11.7492 -28.3752
LeftForeArm  108.624 -69.5596 -146.137
LeftHand  1.35575 -8.55419 -10.8397
RightShoulder  2.95806 5.47063 26.9689
RightArm  -8.27301 -32.8208 44.6022
RightForeArm  36.8143 46.3 9.0972
RightHand  -0.16435 7.50817 -1.84191
LeftUpLeg  2.09388 -0.0197829 1.12444
LeftLeg  -3.14886 6.88513 -0.665165
LeftFoot  -0.127117 0.25197 -2.49732
LeftToes  4.7633e-008 1.48299e-008 1.30754e-009
85
root  -4.04774 40.8788 -0.35052 -11.4982 -83.4835 13.5169
RightUpLeg  4.79341 -2.43589 -2.6339
RightLeg  -2.31532 -25.6287 0.799743
RightFoot  -2.4568 -0.317148 3.83313
RightToes  -3.10096e-008 1.75238e-005 3.56266e-009
Spine  -7.71496 -2.34804 -6.35918
Spine1  11.2433 -3.03847 4.66349
HEad  -24.1419 -1.04759 2.95531
LeftShoulder1  3.2022 -5.92405 -27.9032
LeftArm  -9.22288 -11.8132 -28.8346
LeftForeArm  108.333 -70.0891 -145.125
LeftHand  1.35783 -8.58028 -10.8368
RightShoulder  2.97255 5.50573 27.0025
RightArm  -7.93739 -32.5109 44.3769
RightForeArm  37.0583 46.0132 8.97738
RightHand  -0.132492 7.63543 -1.54653
LeftUpLeg  2.07779 -0.075993 1.09627
LeftLeg  -3.11683 6.66427 -0.6014
LeftFoot  -0.125319 0.254437 -2.54234
LeftToes  4.7633e-008 1.48299e-008 1.30754e-009
86
root  -4.04069 40.8787 -0.349346 -11.4355 -83.4864 13.4421
RightUpLeg  4.80862 -2.42045 -2.62635
RightLeg  -2.3425 -25.6282 0.805437
RightFoot  -2.43077 -0.318408 3.84968
RightToes  -3.10096e-008 1.75238e-005 3.56266e-009
Spine  -7.85011 -2.45579 -6.60819
Spine1  11.4511 -3.21562 4.96745
HEad  -24.077 -0.908814 2.67855
LeftShoulder1  3.24606 -5.97784 -28.1795
LeftArm  -8.84093 -11.2937 -29.1349
LeftForeArm  108.122 -69.9463 -145.367
LeftHand  1.32597 -8.70192 -10.4728
RightShoulder  2.94103 5.44882 26.855
RightArm  -7.63335 -32.1119 44.3542
RightForeArm  37.0596 45.8102 8.90466
RightHand  -0.133809 7.7306 -1.55061
LeftUpLeg  2.10494 -0.0761823 1.09924
LeftLeg  -3.17259 6.66379 -0.598554
LeftFoot  -0.0862441 0.252005 -2.51168
LeftToes  4.7633e-008 1.48299e-008 1.30754e-009
87
root  -4.03182 40.8787 -0.34392 -11.6126 -83.498 13.6228
RightUpLeg  4.78509 -2.44002 -2.65971
RightLeg  -2.32511 -25.5852 0.800665
RightFoot  -2.44249 -0.315639 3.80296
RightToes  -3.10096e-008 1.75238e-005 3.56266e-009
Spine  -7.9249 -2.53128 -6.68545
Spine1  11.6371 -3.30317 4.99884
HEad  -24.2162 -0.75613 2.48542
LeftShoulder1  3.33171 -6.09698 -28.6611
LeftArm  -8.63934 -10.7916 -29.4045
LeftForeArm  108.862 -69.678 -145.943
LeftHand  1.48657 -9.04734 -11.4877
RightShoulder  2.92231 5.42031 26.7462
RightArm  -7.96945 -32.3681 44.4758
RightForeArm  37.44 46.4682 9.11632
RightHand  -0.1762 7.78367 -1.92015
LeftUpLeg  2.0697 -0.0834955 1.07517
LeftLeg  -3.13056 6.69406 -0.605464
LeftFoot  -0.0815202 0.25129 -2.50819
LeftToes  4.7633e-008 1.48299e-008 1.30754e-009
88
root  -4.01967 40.8787 -0.334299 -11.3507 -83.6171 13.3268
RightUpLeg  4.80134 -2.41222 -2.61869
RightLeg  -2.36395 -25.5261 0.819689
RightFoot  -2.39439 -0.321182 3.88449
RightToes  -3.10096e-008 1.75238e-005 3.56266e-009
Spine  -8.06539 -2.56124 -6.41968
Spine1  11.9831 -3.26325 4.61537
HEad  -24.6373 -0.700017 2.81942
LeftShoulder1  3.35024 -6.11843 -28.7784
LeftArm  -8.22342 -10.5598 -29.7222
LeftForeArm  110.5 -69.3376 -146.727
LeftHand  1.41686 -8.95894 -11.0042
RightShoulder  2.92842 5.39277 26.9234
RightArm  -8.50305 -32.5603 44.565
RightForeArm  37.1899 47.192 9.39925
RightHand  -0.197453 7.51898 -2.13952
LeftUpLeg  2.0789 -0.0155305 1.13917
LeftLeg  -3.07884 6.71503 -0.631337
LeftFoot  -0.148779 0.250176 -2.49886
LeftToes  4.7633e-008 1.48299e-008 1.30754e-009
89
root  -4.01338 40.8788 -0.322647 -12.0486 -83.7598 13.9445
RightUpLeg  4.90794 -2.50307 -2.71819
RightLeg  -2.45909 -25.2735 0.893926
RightFoot  -2.38044 -0.310954 3.72041
RightToes  -3.10096e-008 1.75238e-005 3.56266e-009
Spine  -8.09383 -2.56224 -6.14321
Spine1  12.1869 -3.16599 4.15147
HEad  -24.7238 -0.926448 3.3199
LeftShoulder1  3.36184 -6.12141 -28.8908
LeftArm  -8.10202 -10.0155 -29.8908
LeftForeArm  110.508 -69.0712 -147.185
LeftHand  1.4399 -8.91738 -11.2224
RightShoulder  2.92182 5.35372 26.9965
RightArm  -9.02219 -32.4522 44.8234
RightForeArm  37.0706 47.2057 9.41335
RightHand  -0.210278 6.99053 -2.32088
LeftUpLeg  2.18961 -0.0147641 1.09103
LeftLeg  -3.10348 6.85102 -0.666635
LeftFoot  -0.150214 0.247686 -2.46841
LeftToes  4.7633e-008 1.48299e-008 1.30754e-009
